# xmcd
#
# Track frame offsets:
#	150
#	13607
#	26502
#	43773
#	64807
#	81982
#	96348
#	113828
#	122508
#	142966
#	155570
#	167677
#	186795
#	201561
#	215504
#	237759
#	258440
#	274699
#	293965
#	312004
#
# Disc length: 4370 seconds
#
# Revision: 1
# Processed by: cddbd v1.5.1PL0 Copyright (c) Steve Scherf et al.
# Submitted via: audiograbber 1.82.01
#
DISCID=21111014
DTITLE=Chris LeDoux - Anthology Volume I
DYEAR=2005
DGENRE=Country
TTITLE0=Airborne Cowboy
TTITLE1=He Rides The Wild Horses
TTITLE2=Life Is A Highway
TTITLE3=Sons Of The Pioneers
TTITLE4=The Ride
TTITLE5=Bareback Jack
TTITLE6=Hippies In Calgary
TTITLE7=Copenhagen
TTITLE8=Simple As Dirt
TTITLE9=Workin' Man's Dollar
TTITLE10=The Fever
TTITLE11=This Cowboy's Hat
TTITLE12=I've Got To Be A Rodeo Man
TTITLE13=Hard Times
TTITLE14=Tougher Than The Rest
TTITLE15=Take Me To The Rodeo
TTITLE16=The Passenger
TTITLE17=Little Long-Haired Outlaw
TTITLE18=Paint Me Back Home In Wyoming
TTITLE19=Western Skies
EXTD=
EXTT0=
EXTT1=
EXTT2=
EXTT3=
EXTT4=
EXTT5=
EXTT6=
EXTT7=
EXTT8=
EXTT9=
EXTT10=
EXTT11=
EXTT12=
EXTT13=
EXTT14=
EXTT15=
EXTT16=
EXTT17=
EXTT18=
EXTT19=
PLAYORDER=
